<?xml version="1.0" encoding="UTF-8"?>
<!DOCTYPE svg PUBLIC "-//W3C//DTD SVG 1.1//EN" "http://www.w3.org/Graphics/SVG/1.1/DTD/svg11.dtd">
<svg xmlns="http://www.w3.org/2000/svg" version="1.1" width="232px" height="68px" style="shape-rendering:geometricPrecision; text-rendering:geometricPrecision; image-rendering:optimizeQuality; fill-rule:evenodd; clip-rule:evenodd" xmlns:xlink="http://www.w3.org/1999/xlink">
<g><path style="opacity:0.978" fill="#0045a1" d="M 50.5,11.5 C 50.5,12.8333 50.5,14.1667 50.5,15.5C 46.1667,15.5 41.8333,15.5 37.5,15.5C 37.5,14.1667 37.5,12.8333 37.5,11.5C 39.6308,10.3413 40.9641,8.50793 41.5,6C 43.1667,5.33333 44.8333,5.33333 46.5,6C 47.0359,8.50793 48.3692,10.3413 50.5,11.5 Z"/></g>
<g><path style="opacity:0.958" fill="#0047a6" d="M 35.5,11.5 C 35.2865,13.1439 35.6198,14.6439 36.5,16C 41.1,17.7662 45.7667,17.9328 50.5,16.5C 51.9501,15.1502 52.6168,13.4835 52.5,11.5C 56.1064,11.2108 59.6064,11.5442 63,12.5C 63.4998,21.1603 63.6664,29.8269 63.5,38.5C 62.6618,38.8417 62.3284,39.5084 62.5,40.5C 61.8333,40.5 61.5,40.8333 61.5,41.5C 60.8333,41.5 60.5,41.8333 60.5,42.5C 59.8333,42.5 59.5,42.8333 59.5,43.5C 58.8333,43.5 58.5,43.8333 58.5,44.5C 57.8333,44.5 57.1667,44.5 56.5,44.5C 56.1583,43.6618 55.4916,43.3284 54.5,43.5C 54.5,42.8333 54.1667,42.5 53.5,42.5C 53.5,41.8333 53.1667,41.5 52.5,41.5C 52.5,40.8333 52.1667,40.5 51.5,40.5C 51.5,39.8333 51.1667,39.5 50.5,39.5C 50.5,38.8333 50.1667,38.5 49.5,38.5C 49.1667,38.5 48.8333,38.5 48.5,38.5C 47.8333,38.5 47.5,38.8333 47.5,39.5C 41.4018,38.8833 35.7351,39.55 30.5,41.5C 34.8333,42.1667 39.1667,42.8333 43.5,43.5C 43.5,43.8333 43.5,44.1667 43.5,44.5C 42.8333,44.5 42.5,44.8333 42.5,45.5C 42.5,46.1667 42.8333,46.5 43.5,46.5C 39.5764,48.1234 35.2431,49.1234 30.5,49.5C 36.1278,50.4954 41.7945,50.8288 47.5,50.5C 47.5,51.1667 47.8333,51.5 48.5,51.5C 48.5,52.1667 48.8333,52.5 49.5,52.5C 49.5,53.1667 49.8333,53.5 50.5,53.5C 50.8333,53.5 51.1667,53.5 51.5,53.5C 51.5,54.1667 51.8333,54.5 52.5,54.5C 52.5,55.1667 52.8333,55.5 53.5,55.5C 53.5,56.1667 53.8333,56.5 54.5,56.5C 54.5,57.1667 54.8333,57.5 55.5,57.5C 45.4314,58.8288 35.2648,58.8288 25,57.5C 24.3333,42.5 24.3333,27.5 25,12.5C 28.3936,11.5442 31.8936,11.2108 35.5,11.5 Z M 35.5,22.5 C 41.2055,22.1712 46.8722,22.5046 52.5,23.5C 49.6667,23.8333 46.8333,24.1667 44,24.5C 40.7485,24.4809 37.9151,23.8142 35.5,22.5 Z M 30.5,31.5 C 39.5246,31.1685 48.5246,31.5018 57.5,32.5C 53,32.8333 48.5,33.1667 44,33.5C 39.1139,33.4927 34.6139,32.8261 30.5,31.5 Z M 47.5,39.5 C 47.5,39.8333 47.5,40.1667 47.5,40.5C 46.7281,41.6935 45.7281,42.6935 44.5,43.5C 40.2853,41.5636 35.6186,40.8969 30.5,41.5C 35.7351,39.55 41.4018,38.8833 47.5,39.5 Z"/></g>
<g><path style="opacity:0.87" fill="#000000" d="M 120.5,11.5 C 124.167,11.5 127.833,11.5 131.5,11.5C 131.334,20.1731 131.5,28.8397 132,37.5C 137.929,29.8855 145.762,27.2188 155.5,29.5C 155.5,26.1667 155.5,22.8333 155.5,19.5C 158.833,19.5 162.167,19.5 165.5,19.5C 165.5,22.8333 165.5,26.1667 165.5,29.5C 167.5,29.5 169.5,29.5 171.5,29.5C 171.5,32.1667 171.5,34.8333 171.5,37.5C 169.5,37.5 167.5,37.5 165.5,37.5C 165.335,41.1817 165.501,44.8484 166,48.5C 167.113,49.7111 168.28,49.7111 169.5,48.5C 170.624,50.3686 171.457,52.3686 172,54.5C 172.5,46.1733 172.666,37.84 172.5,29.5C 176.167,29.5 179.833,29.5 183.5,29.5C 183.5,38.8333 183.5,48.1667 183.5,57.5C 177.479,57.4247 171.479,57.758 165.5,58.5C 161.103,59.0528 157.937,57.3861 156,53.5C 155.501,48.1771 155.334,42.8437 155.5,37.5C 154.167,37.5 152.833,37.5 151.5,37.5C 151.66,35.8008 151.494,34.1341 151,32.5C 147.5,36 144,39.5 140.5,43C 145.167,47.6667 149.833,52.3333 154.5,57C 149.833,57.6667 145.167,57.6667 140.5,57C 137.667,54.1667 134.833,51.3333 132,48.5C 131.502,51.4816 131.335,54.4816 131.5,57.5C 127.833,57.5 124.167,57.5 120.5,57.5C 120.5,42.1667 120.5,26.8333 120.5,11.5 Z"/></g>
<g><path style="opacity:0.82" fill="#000000" d="M 176.5,12.5 C 184.605,13.5434 186.272,17.3767 181.5,24C 174,25.8333 171.167,23 173,15.5C 174.145,14.3636 175.312,13.3636 176.5,12.5 Z"/></g>
<g><path style="opacity:0.307" fill="#00224f" d="M 35.5,11.5 C 36.1667,11.5 36.8333,11.5 37.5,11.5C 37.5,12.8333 37.5,14.1667 37.5,15.5C 41.8333,15.5 46.1667,15.5 50.5,15.5C 50.5,14.1667 50.5,12.8333 50.5,11.5C 51.1667,11.5 51.8333,11.5 52.5,11.5C 52.6168,13.4835 51.9501,15.1502 50.5,16.5C 45.7667,17.9328 41.1,17.7662 36.5,16C 35.6198,14.6439 35.2865,13.1439 35.5,11.5 Z"/></g>
<g><path style="opacity:0.879" fill="#000000" d="M 96.5,28.5 C 99.6008,28.6917 102.601,29.3584 105.5,30.5C 109.429,29.5672 113.429,29.2338 117.5,29.5C 117.5,38.8333 117.5,48.1667 117.5,57.5C 113.563,57.7935 109.73,57.4601 106,56.5C 90.1912,61.0335 83.1912,55.0335 85,38.5C 87.2099,33.1124 91.0432,29.779 96.5,28.5 Z M 100.5,37.5 C 106.093,38.6179 107.926,41.9512 106,47.5C 100.789,50.9364 97.2887,49.7697 95.5,44C 95.6455,40.4966 97.3121,38.3299 100.5,37.5 Z"/></g>
<g><path style="opacity:0.847" fill="#000000" d="M 196.5,28.5 C 201.101,28.4006 205.435,29.4006 209.5,31.5C 208.42,33.9962 207.086,36.3295 205.5,38.5C 202.977,36.592 200.31,36.2586 197.5,37.5C 200.421,39.0894 203.421,40.5894 206.5,42C 211.275,48.4918 210.275,53.8251 203.5,58C 199.167,58.6667 194.833,58.6667 190.5,58C 188.187,57.3591 186.52,56.0257 185.5,54C 186.701,51.7661 188.035,49.5994 189.5,47.5C 192.1,50.2191 195.1,50.8858 198.5,49.5C 194.812,47.564 191.312,45.2307 188,42.5C 185.757,34.6026 188.59,29.936 196.5,28.5 Z"/></g>
<g><path style="opacity:0.977" fill="#00439d" d="M 55.5,57.5 C 54.8333,57.5 54.5,57.1667 54.5,56.5C 53.8333,56.5 53.5,56.1667 53.5,55.5C 52.8333,55.5 52.5,55.1667 52.5,54.5C 51.8333,54.5 51.5,54.1667 51.5,53.5C 51.1667,52.1667 50.8333,52.1667 50.5,53.5C 49.8333,53.5 49.5,53.1667 49.5,52.5C 48.8333,52.5 48.5,52.1667 48.5,51.5C 47.8333,51.5 47.5,51.1667 47.5,50.5C 46.5,49.1667 45.5,47.8333 44.5,46.5C 44.5,45.8333 44.5,45.1667 44.5,44.5C 44.5,44.1667 44.5,43.8333 44.5,43.5C 45.7281,42.6935 46.7281,41.6935 47.5,40.5C 48.5,40.5 49.5,40.5 50.5,40.5C 50.8333,40.5 51.1667,40.5 51.5,40.5C 52.1667,40.5 52.5,40.8333 52.5,41.5C 53.1667,41.5 53.5,41.8333 53.5,42.5C 54.1667,42.5 54.5,42.8333 54.5,43.5C 54.8417,44.3382 55.5084,44.6716 56.5,44.5C 57.5477,46.9327 58.2144,46.9327 58.5,44.5C 59.1667,44.5 59.5,44.1667 59.5,43.5C 60.1667,43.5 60.5,43.1667 60.5,42.5C 61.1667,42.5 61.5,42.1667 61.5,41.5C 62.1667,41.5 62.5,41.1667 62.5,40.5C 63.3382,40.1583 63.6716,39.4916 63.5,38.5C 66.1923,34.8088 69.5256,31.8088 73.5,29.5C 77.2831,30.4372 78.7831,32.7705 78,36.5C 72.1667,43.6667 66.3333,50.8333 60.5,58C 58.735,58.6397 57.0683,58.4731 55.5,57.5 Z M 56.5,44.5 C 57.1667,44.5 57.8333,44.5 58.5,44.5C 58.2144,46.9327 57.5477,46.9327 56.5,44.5 Z"/></g>
<g><path style="opacity:0.031" fill="#00142e" d="M 48.5,38.5 C 48.8333,39.8333 49.1667,39.8333 49.5,38.5C 50.1667,38.5 50.5,38.8333 50.5,39.5C 50.5,39.8333 50.5,40.1667 50.5,40.5C 49.5,40.5 48.5,40.5 47.5,40.5C 47.5,40.1667 47.5,39.8333 47.5,39.5C 47.5,38.8333 47.8333,38.5 48.5,38.5 Z"/></g>
<g><path style="opacity:0.122" fill="#002250" d="M 30.5,41.5 C 35.6186,40.8969 40.2853,41.5636 44.5,43.5C 44.1667,43.5 43.8333,43.5 43.5,43.5C 39.1667,42.8333 34.8333,42.1667 30.5,41.5 Z"/></g>
<g><path style="opacity:0.047" fill="#00112b" d="M 42.5,45.5 C 42.5,44.8333 42.8333,44.5 43.5,44.5C 43.8333,44.5 44.1667,44.5 44.5,44.5C 44.5,45.1667 44.5,45.8333 44.5,46.5C 44.1667,46.5 43.8333,46.5 43.5,46.5C 42.8333,46.5 42.5,46.1667 42.5,45.5 Z"/></g>
</svg>
